# xmcd
#
# Track frame offsets:
#	182
#	14395
#	27285
#	37572
#	50245
#	63592
#	74760
#	84085
#	96800
#	107382
#	121887
#	131437
#	143132
#	155150
#	169365
#	179982
#	190665
#	205550
#
# Disc length: 2918 seconds
#
# Revision: 1
# Processed by: cddbd v1.4PL0 Copyright (c) Steve Scherf et al.
# Submitted via: audiograbber 1.81.02
#
DISCID=f90b6412
DTITLE=Various Artist - Great Western Movie Themes
DYEAR=2000
DGENRE=Country
TTITLE0=True Grit
TTITLE1=The Magnificent Seven
TTITLE2=The Green Leaves Of Summer
TTITLE3=Theme from Hondo
TTITLE4=The Man With The Harmonica
TTITLE5=The Professional Gun
TTITLE6=Yankee Doodle
TTITLE7=Dynamite Ringo
TTITLE8=Return Of The Seven
TTITLE9=Wandering Star
TTITLE10=Hang 'Em High
TTITLE11=The Man From Laramie
TTITLE12=How The West Was Won
TTITLE13=The Alamo
TTITLE14=The Comancheros
TTITLE15=Bonanza
TTITLE16=Once Upon A Time In The West
TTITLE17=The Good, The Bad And The Ugly
EXTD=
EXTT0=
EXTT1=
EXTT2=
EXTT3=
EXTT4=
EXTT5=
EXTT6=
EXTT7=
EXTT8=
EXTT9=
EXTT10=
EXTT11=
EXTT12=
EXTT13=
EXTT14=
EXTT15=
EXTT16=
EXTT17=
PLAYORDER=
